Coordinates
version=1
nRows=19
nColumns=24
inDegrees=yes

Units are S.I. units (second, meters, Newtons, ...)
Angles are in degrees.

endheader
time	pelvis_tilt	pelvis_list	pelvis_rotation	pelvis_tx	pelvis_ty	pelvis_tz	hip_flexion_r	hip_adduction_r	hip_rotation_r	knee_angle_r	ankle_angle_r	subtalar_angle_r	mtp_angle_r	hip_flexion_l	hip_adduction_l	hip_rotation_l	knee_angle_l	ankle_angle_l	subtalar_angle_l	mtp_angle_l	lumbar_extension	lumbar_bending	lumbar_rotation
      1.43716667	     -5.62641334	      1.50057336	     -4.49383217	      0.43175659	      1.07013001	      0.25678994	     22.91950236	     -3.50230307	     -2.57450992	    -63.63915011	      5.66335509	     -3.74548426	      3.45422881	     14.15217910	      2.61517143	     -2.19889668	    -15.39895297	     10.97913905	      5.26882206	     -0.01988016	    -10.45146839	     -5.17561467	     -0.79633281
      1.44133333	     -5.59237606	      1.43301451	     -4.38607942	      0.43663613	      1.07076854	      0.25631022	     23.24422980	     -3.43232632	     -2.74560227	    -62.97920638	      5.96444514	     -3.50166980	      3.49606091	     13.66235954	      2.61365307	     -2.10025512	    -15.05348810	     11.06630873	      5.32688608	     -0.01350261	    -10.44712252	     -5.06282517	     -0.96774932
      1.44550000	     -5.59238794	      1.36340255	     -4.28030156	      0.44151403	      1.07130248	      0.25585473	     23.59841682	     -3.35503949	     -2.91532356	    -62.29515003	      6.23901739	     -3.34763098	      3.53504814	     13.21331933	      2.60334139	     -2.00195903	    -14.71518462	     11.13227405	      5.38468782	     -0.00763930	    -10.40602648	     -4.93555815	     -1.10314268
      1.44966667	     -5.58883376	      1.29650574	     -4.17413846	      0.44637179	      1.07179190	      0.25540763	     23.94181578	     -3.28262524	     -3.08686129	    -61.58743056	      6.51079610	     -3.23239523	      3.56009578	     12.76989514	      2.59244186	     -1.92224445	    -14.39310022	     11.19051924	      5.45358451	     -0.00372331	    -10.36613624	     -4.82177767	     -1.19008167
      1.45383333	     -5.58988770	      1.22725048	     -4.07329105	      0.45121657	      1.07223665	      0.25497769	     24.28311300	     -3.20647909	     -3.25397422	    -60.85568075	      6.76106761	     -3.14202058	      3.58148663	     12.33176582	      2.57716633	     -1.83392196	    -14.07084401	     11.26499278	      5.51457147	      0.00033098	    -10.32734134	     -4.70028182	     -1.29400399
      1.45800000	     -5.60828028	      1.16368166	     -3.98096810	      0.45605198	      1.07260587	      0.25457035	     24.64024520	     -3.13138044	     -3.40966989	    -60.10823684	      6.99769058	     -3.10426604	      3.59601160	     11.91279401	      2.56353165	     -1.75065223	    -13.74652582	     11.34067083	      5.58471474	      0.00384822	    -10.27789791	     -4.57213325	     -1.37783901
      1.46216667	     -5.59639390	      1.09354501	     -3.87835914	      0.46086503	      1.07298634	      0.25416047	     24.94931162	     -3.05874778	     -3.58069486	    -59.32721820	      7.22447845	     -3.07243076	      3.61049929	     11.47277788	      2.54499407	     -1.65863761	    -13.44596110	     11.42487263	      5.62324534	      0.00807915	    -10.24886411	     -4.45851248	     -1.50140612
      1.46633333	     -5.62806523	      1.05170899	     -3.80141940	      0.46567034	      1.07322188	      0.25380640	     25.31666789	     -3.00115511	     -3.71528486	    -58.55439146	      7.43741152	     -3.09561518	      3.61816708	     11.07451952	      2.54793648	     -1.58592884	    -13.12952337	     11.51249981	      5.68627799	      0.01176335	    -10.18425404	     -4.36390036	     -1.57706262
      1.47050000	     -5.63671167	      0.97902430	     -3.70074150	      0.47045626	      1.07349275	      0.25342727	     25.63020896	     -2.92240243	     -3.88321107	    -57.72725659	      7.62956201	     -3.13635582	      3.62462064	     10.66899870	      2.52161991	     -1.48800392	    -12.85216498	     11.59868817	      5.70224334	      0.01590788	    -10.13696136	     -4.24712507	     -1.69973087
      1.47466667	     -5.67187889	      0.94305063	     -3.63022826	      0.47522665	      1.07363583	      0.25311816	     25.98877211	     -2.86775732	     -4.00797564	    -56.91824818	      7.81914126	     -3.21405399	      3.62676244	     10.28390127	      2.52573387	     -1.41663020	    -12.55033242	     11.69404458	      5.75135381	      0.01988796	    -10.06995191	     -4.16249791	     -1.77543785
      1.47883333	     -5.68785412	      0.88569920	     -3.53731821	      0.47996629	      1.07378946	      0.25278795	     26.30245607	     -2.79987113	     -4.15706570	    -56.06325992	      7.97635262	     -3.32898582	      3.62444340	      9.89867039	      2.51007855	     -1.31925772	    -12.29261687	     11.78778165	      5.74961074	      0.02487240	    -10.01929765	     -4.06694626	     -1.89820585
      1.48300000	     -5.71411797	      0.84892204	     -3.46367891	      0.48469678	      1.07388521	      0.25250166	     26.63162549	     -2.74323768	     -4.27688320	    -55.20664525	      8.10332884	     -3.47950786	      3.61441122	      9.51355889	      2.51428135	     -1.21107440	    -12.00664037	     11.88688164	      5.73653957	      0.03180470	     -9.96475173	     -3.98654950	     -2.02609676
      1.48716667	     -5.73979048	      0.80611207	     -3.39435955	      0.48940566	      1.07393751	      0.25224490	     26.95074602	     -2.67715200	     -4.39372343	    -54.32966099	      8.24780939	     -3.63715601	      3.60204780	      9.14062884	      2.50573419	     -1.13536063	    -11.74732092	     11.98699741	      5.75514745	      0.03814798	     -9.91241005	     -3.91002768	     -2.09367364
      1.49133333	     -5.79068187	      0.77668723	     -3.33373780	      0.49411665	      1.07388465	      0.25201781	     27.29692568	     -2.61921936	     -4.49565310	    -53.45313677	      8.41077413	     -3.79222792	      3.59349549	      8.79945479	      2.50590663	     -1.08227405	    -11.49580463	     12.09419723	      5.80151345	      0.04295159	     -9.83703217	     -3.83997672	     -2.12963033
      1.49550000	     -5.81339545	      0.72940740	     -3.25682183	      0.49879016	      1.07388330	      0.25178890	     27.58993002	     -2.54425366	     -4.60377353	    -52.52902806	      8.49439352	     -4.01919043	      3.57475801	      8.44447935	      2.48885560	     -1.00550212	    -11.27923447	     12.20652570	      5.81070390	      0.04899822	     -9.79130103	     -3.76361860	     -2.20022969
      1.49966667	     -5.84047477	      0.70311996	     -3.19687912	      0.50344208	      1.07380056	      0.25161030	     27.89508242	     -2.48324223	     -4.69148833	    -51.61372479	      8.58026409	     -4.24820423	      3.55083550	      8.08997482	      2.49104117	     -0.93133860	    -11.04856320	     12.32660737	      5.82132277	      0.05610001	     -9.74519497	     -3.71373037	     -2.27252024
      1.50383333	     -5.88037315	      0.68900710	     -3.13877172	      0.50808979	      1.07365148	      0.25144978	     28.20964535	     -2.43143107	     -4.76527330	    -50.69193957	      8.67085908	     -4.46702635	      3.52668027	      7.75615950	      2.50326086	     -0.86475050	    -10.83185427	     12.44620963	      5.83391581	      0.06281624	     -9.68804401	     -3.67325702	     -2.32750410
      1.50800000	     -5.93026015	      0.67175775	     -3.08102406	      0.51272654	      1.07345290	      0.25130807	     28.52626386	     -2.37245693	     -4.83408140	    -49.75333784	      8.73440315	     -4.70091929	      3.49902780	      7.43833785	      2.50993912	     -0.79458904	    -10.62523876	     12.57399940	      5.84341921	      0.07003173	     -9.62098203	     -3.63419506	     -2.37936198
      1.51216667	     -5.96181826	      0.67319460	     -3.03081158	      0.51733757	      1.07323465	      0.25119484	     28.82402781	     -2.32832743	     -4.88484830	    -48.81383150	      8.79376859	     -4.93220354	      3.46848710	      7.10323367	      2.53575754	     -0.73079963	    -10.42039970	     12.70245181	      5.84891800	      0.07755942	     -9.58138441	     -3.61840885	     -2.43018975
